<?xml version="1.0" standalone="no"?>
<!DOCTYPE svg PUBLIC "-//W3C//DTD SVG 20010904//EN"
 "http://www.w3.org/TR/2001/REC-SVG-20010904/DTD/svg10.dtd">
<svg version="1.0" xmlns="http://www.w3.org/2000/svg"
 width="1536.000000pt" height="1024.000000pt" viewBox="0 0 1536.000000 1024.000000"
 preserveAspectRatio="xMidYMid meet">

<g transform="translate(0.000000,1024.000000) scale(0.100000,-0.100000)"
fill="#000000" stroke="none">
<path d="M6113 9374 c-16 -7 33 -54 57 -54 25 0 33 -15 15 -30 -39 -32 19 -30
99 4 21 9 51 16 67 16 35 0 40 25 7 34 -13 3 -48 6 -78 6 -30 0 -66 7 -80 15
-25 14 -64 18 -87 9z"/>
<path d="M8313 9310 c-23 -9 -49 -48 -39 -58 3 -3 16 4 29 16 14 13 36 22 55
22 34 0 43 14 16 24 -20 8 -34 7 -61 -4z"/>
<path d="M7550 9033 c-7 -26 -14 -55 -16 -65 -3 -9 0 -19 6 -23 7 -5 5 -11 -7
-20 -15 -11 -16 -15 -3 -30 13 -16 12 -19 -7 -32 -20 -13 -21 -17 -8 -30 16
-15 20 -43 7 -43 -5 0 -17 -6 -28 -14 -18 -14 -18 -15 9 -25 36 -14 35 -31 -2
-31 -36 0 -48 -15 -24 -29 15 -9 11 -10 -19 -11 -44 0 -57 -14 -29 -32 19 -12
19 -12 -5 -34 -26 -25 -26 -25 44 -39 40 -8 32 -21 -18 -30 -19 -3 -37 -11
-39 -17 -2 -6 -16 -24 -32 -41 -51 -53 -47 -86 10 -87 18 0 21 -3 13 -13 -7
-8 -6 -18 4 -31 20 -29 17 -36 -14 -36 -16 0 -37 -9 -46 -19 -17 -19 -17 -20
3 -30 11 -6 30 -11 43 -11 l23 0 -25 -20 c-29 -23 -27 -24 20 -10 25 7 36 7
42 -3 6 -9 10 -9 16 -1 12 18 52 -2 52 -27 0 -21 -4 -22 -89 -10 -2 1 -1 8 3
16 4 12 2 13 -12 7 -20 -11 -98 -9 -125 3 -14 6 -20 2 -24 -14 -3 -11 -12 -21
-19 -21 -16 0 -19 -16 -4 -25 16 -10 -8 -35 -31 -35 -11 0 -19 -7 -19 -15 0
-8 -4 -15 -9 -15 -5 0 -11 -11 -13 -24 -5 -23 -1 -25 45 -31 28 -4 44 -10 37
-15 -16 -10 13 -21 69 -26 65 -6 72 -18 15 -27 -17 -3 -40 -11 -52 -18 -20
-12 -20 -15 -5 -31 9 -10 29 -18 45 -18 38 0 35 -11 -7 -35 -21 -11 -34 -24
-31 -31 3 -8 -1 -20 -9 -28 -17 -17 -20 -36 -4 -36 5 0 7 -5 4 -11 -4 -6 2 -5
14 3 16 10 23 10 33 0 6 -6 22 -12 34 -12 12 0 24 -5 26 -11 2 -6 19 -12 38
-13 19 -2 43 -7 53 -11 12 -5 17 -2 17 10 0 9 5 13 10 10 14 -9 14 -485 0
-485 -6 0 -30 10 -53 21 l-42 22 19 -21 c10 -12 34 -26 52 -32 l34 -12 0 -74
0 -74 -30 0 c-18 0 -33 -6 -36 -15 -8 -20 -31 -19 -43 3 -6 9 -11 13 -11 9 0
-4 7 -18 16 -31 21 -33 4 -41 -51 -26 -45 13 -95 7 -95 -10 0 -16 63 -50 93
-50 29 0 36 -17 15 -38 -9 -9 1 -12 45 -12 55 0 57 1 47 20 -9 17 -7 24 12 40
13 10 26 16 30 13 10 -5 11 -407 2 -416 -4 -3 -18 2 -31 13 -20 16 -29 17 -46
8 -17 -9 -24 -7 -36 8 -9 11 -27 24 -41 30 -14 7 -56 40 -95 73 -93 83 -101
87 -116 59 -8 -15 -10 -55 -6 -127 6 -112 5 -114 -36 -41 -26 48 -42 33 -45
-43 -2 -37 -7 -67 -12 -67 -6 0 -10 7 -10 16 0 8 -3 13 -8 10 -4 -2 -7 11 -6
30 1 19 -2 31 -7 28 -5 -3 -7 -10 -4 -15 4 -5 2 -9 -2 -9 -5 0 -18 -7 -29 -16
-10 -8 -12 -13 -4 -9 10 4 9 2 -2 -8 -10 -8 -18 -19 -18 -25 0 -5 -9 -8 -20
-5 -14 4 -20 0 -20 -10 0 -26 18 -29 40 -7 22 22 35 27 24 8 -13 -21 -11 -45
3 -45 7 0 13 6 13 13 0 7 4 16 10 19 6 3 7 -1 4 -9 -4 -11 0 -16 12 -16 9 0
26 -7 36 -17 13 -11 18 -12 18 -3 0 10 4 9 17 -1 15 -12 16 -12 10 4 -4 11 -3
16 3 12 6 -3 10 -13 10 -21 0 -14 2 -13 16 0 20 20 30 21 14 1 -7 -9 -10 -18
-6 -22 3 -3 6 -2 6 4 0 6 9 13 19 16 13 3 21 -2 25 -15 3 -16 10 -19 27 -15
12 3 28 0 36 -9 8 -8 11 -14 6 -15 -4 0 1 -4 12 -8 12 -5 23 -4 27 3 6 8 8 8
8 0 0 -6 12 -10 28 -8 15 2 19 1 9 -2 -9 -3 -15 -9 -12 -14 3 -4 -5 -6 -17 -2
-14 3 -19 2 -14 -6 4 -7 1 -14 -6 -17 -9 -4 -14 -21 -14 -45 l1 -40 49 53 c27
28 49 61 50 71 0 11 7 21 15 24 10 3 13 -2 9 -21 -4 -22 -2 -26 16 -24 12 1
20 -3 18 -11 -2 -10 2 -10 18 0 10 7 20 23 22 37 2 13 9 26 16 29 22 7 13
-124 -10 -153 -10 -13 -59 -49 -108 -80 -104 -66 -200 -165 -200 -206 0 -15
-7 -32 -15 -39 -13 -11 -15 -7 -15 24 0 20 -5 36 -11 36 -25 0 -2 46 31 61 38
18 89 66 57 53 -9 -3 -17 -10 -17 -15 0 -5 -7 -9 -15 -9 -8 0 -15 -5 -15 -11
0 -6 -6 -9 -14 -6 -7 3 -18 1 -24 -5 -7 -7 -14 -3 -22 12 l-11 21 -29 -29
c-16 -17 -37 -35 -47 -41 -15 -9 -16 -12 -4 -20 8 -5 20 -7 26 -5 7 3 15 -2
18 -10 6 -14 -26 -33 -46 -28 -5 1 -6 -2 -2 -8 3 -5 13 -10 21 -10 8 0 13 -8
11 -17 -5 -31 -19 -45 -38 -40 -10 3 -22 1 -25 -4 -9 -16 -18 -10 -48 35 l-29
44 -20 -37 c-10 -20 -19 -42 -20 -48 -1 -20 -18 -15 -24 7 -7 26 -9 25 -36 -6
-18 -21 -26 -24 -46 -16 -16 5 -25 18 -27 35 -2 20 1 24 13 20 11 -4 14 -2 11
8 -3 8 -11 13 -17 11 -6 -1 -11 7 -11 17 0 11 -5 23 -10 26 -6 4 -8 10 -5 15
3 5 1 19 -5 31 -8 15 -9 24 -1 32 7 7 7 16 0 29 -7 13 -6 18 3 18 9 0 9 3 1
11 -6 6 -9 18 -6 25 3 8 -2 17 -11 20 -12 5 -13 10 -5 26 7 14 7 23 -1 33 -8
9 -8 15 0 20 6 3 7 12 3 18 -4 7 -6 20 -5 30 2 9 -4 20 -12 23 -13 5 -13 10
-4 27 8 16 8 22 -1 25 -8 3 -6 9 6 19 17 14 17 14 -4 10 -20 -5 -25 0 -25 23
0 3 3 15 7 28 4 15 2 22 -7 22 -8 0 -13 13 -14 33 0 18 -4 42 -8 53 -6 16 -11
11 -31 -30 -19 -40 -21 -52 -12 -68 10 -16 9 -21 -6 -29 -14 -8 -15 -14 -6
-30 6 -11 7 -28 4 -37 -10 -24 -13 -95 -4 -80 14 22 21 0 14 -40 -4 -26 -13
-42 -24 -45 -36 -9 -45 29 -49 212 -5 194 3 237 51 277 27 22 68 33 66 17 -3
-21 3 -32 20 -38 14 -4 19 -14 18 -32 -2 -32 23 -39 50 -14 16 16 19 16 30 2
11 -13 12 -11 7 15 -4 23 -2 33 11 37 9 4 14 3 10 -2 -5 -9 27 -1 83 20 13 5
21 13 17 18 -3 6 1 16 9 23 12 11 11 15 -8 25 -19 11 -19 12 -2 13 14 0 17 5
13 21 -4 15 1 22 19 29 15 6 22 15 18 24 -3 8 2 17 13 20 20 6 49 46 33 46 -5
0 -7 7 -4 15 5 12 -3 15 -39 15 -25 0 -49 5 -52 10 -3 6 -18 10 -33 10 -15 0
-35 7 -44 14 -16 12 -16 14 2 33 16 18 17 23 5 39 -11 15 -14 16 -15 4 0 -11
-11 -15 -35 -16 -29 0 -34 3 -30 17 9 27 -49 36 -86 14 -6 -4 -13 3 -16 14
l-6 22 -14 -21 c-8 -11 -18 -18 -23 -15 -14 8 11 57 26 51 7 -3 15 2 18 11 4
10 12 13 24 8 41 -16 53 -15 47 5 -9 29 2 42 25 30 13 -7 21 -7 25 0 11 18 26
10 20 -10 -4 -14 -2 -20 9 -20 9 0 13 -6 10 -14 -4 -9 12 -17 54 -26 51 -10
63 -10 90 4 42 22 46 31 19 53 -13 10 -26 26 -30 36 -6 15 -32 22 -84 20 -7
-1 -10 3 -8 8 3 4 -3 12 -12 18 -14 8 0 10 55 11 72 0 85 7 57 30 -8 7 -15 18
-15 25 0 8 -13 16 -30 20 -33 7 -39 19 -14 29 15 6 15 8 -2 27 -18 21 -18 21
4 39 12 10 22 23 22 29 0 6 4 11 10 11 5 0 -2 12 -15 26 -20 21 -31 25 -55 21
-22 -5 -30 -3 -30 8 0 8 -7 15 -15 15 -22 0 -6 30 21 41 32 12 30 27 -3 35
-16 4 -33 13 -40 21 -6 8 -31 17 -55 20 -43 6 -73 25 -60 37 3 4 0 11 -8 16
-18 11 -11 18 21 24 13 2 24 5 24 6 0 1 14 3 31 4 18 2 59 14 92 27 49 19 60
27 60 46 0 13 -7 23 -14 23 -20 0 -106 55 -98 62 3 4 17 2 30 -4 18 -8 28 -8
35 -1 18 18 0 33 -41 33 -21 0 -42 4 -45 10 -7 12 -55 10 -72 -2 -7 -5 -14 -4
-18 2 -5 8 -11 4 -19 -10 -10 -21 -35 -26 -28 -6 5 14 -21 26 -40 20 -10 -3
-18 -1 -18 5 0 6 8 11 18 12 9 0 24 2 32 4 8 2 31 7 50 10 66 11 81 16 75 25
-3 5 0 7 7 5 8 -3 24 6 36 20 l21 25 -22 12 c-24 13 -50 19 -86 18 -13 0 -31
6 -39 12 -8 7 -29 13 -46 13 -40 0 -50 18 -11 21 55 3 76 14 65 34 -7 13 -7
21 0 25 6 4 8 11 5 16 -4 5 -1 9 4 9 16 0 9 22 -14 41 -19 17 -19 17 15 32
l35 15 -32 12 c-18 7 -33 19 -33 27 0 12 -7 14 -29 10 -16 -3 -32 -3 -36 1 -3
4 -21 12 -38 18 l-32 11 43 12 c47 13 54 28 17 37 -31 8 -32 20 -3 35 21 11
21 12 4 25 -17 12 -17 13 8 20 29 7 35 24 9 24 -10 0 -25 5 -33 10 -13 9 -13
12 3 21 16 10 17 13 4 27 -12 14 -16 53 -7 72 5 11 -2 66 -10 75 -4 6 -10 19
-13 30 -4 18 -5 18 -6 -2 0 -13 -7 -23 -16 -23 -10 0 -13 -9 -10 -30 2 -16 -1
-30 -6 -30 -5 0 -9 -7 -9 -15 0 -8 6 -15 13 -15 9 0 9 -2 -1 -8 -7 -5 -10 -16
-6 -25 4 -10 1 -17 -6 -17 -10 0 -10 -3 -1 -14 10 -11 8 -16 -9 -21 -21 -7
-21 -7 -2 -21 13 -9 18 -21 15 -39 -4 -21 -11 -25 -37 -25 -24 0 -33 -5 -33
-16 0 -9 9 -19 19 -22 13 -3 18 -12 16 -26 -3 -18 -9 -21 -48 -18 l-45 3 30
-16 c16 -9 31 -18 33 -19 1 -2 -11 -12 -28 -23 -25 -16 -28 -22 -16 -26 8 -3
18 -2 21 3 8 14 45 13 45 -1 0 -6 -9 -13 -20 -16 -12 -3 -27 -18 -35 -34 -14
-26 -14 -29 5 -39 22 -12 28 -35 7 -27 -7 3 -24 -3 -37 -13 l-25 -18 28 -7
c15 -4 27 -11 27 -15 0 -5 8 -10 18 -13 9 -2 4 -4 -13 -4 -42 0 -135 -44 -135
-65 0 -9 12 -21 28 -26 15 -6 36 -17 47 -26 20 -16 20 -16 -6 -39 -28 -26 -42
-52 -43 -82 -1 -14 -9 -21 -26 -23 -35 -5 -48 -20 -24 -28 10 -4 22 -12 26
-18 8 -12 72 7 98 29 8 7 24 15 35 17 11 3 28 9 38 13 13 5 17 2 17 -15 0 -12
-4 -18 -11 -15 -23 15 -75 -5 -92 -34 -15 -26 -15 -31 -2 -44 9 -10 31 -14 59
-13 50 2 53 -9 5 -19 -17 -4 -33 -13 -36 -21 -3 -9 -13 -12 -25 -8 -13 4 -18
2 -14 -4 4 -6 -2 -16 -11 -22 -17 -11 -17 -11 1 -6 15 5 17 4 7 -8 -9 -11 -8
-15 3 -19 8 -3 17 -1 20 6 2 7 5 4 5 -5 1 -10 8 -18 17 -18 8 0 13 -4 9 -9 -3
-6 2 -14 10 -18 13 -8 12 -12 -9 -32 -22 -21 -54 -22 -41 -1 3 4 -9 10 -25 12
-17 3 -30 1 -30 -4 0 -4 -10 -8 -23 -8 -15 0 -23 -6 -23 -17 -1 -10 -4 -25 -8
-34 -5 -12 0 -18 24 -23 17 -3 38 -12 45 -20 12 -12 9 -14 -23 -14 -36 0 -137
-18 -117 -21 6 -1 3 -6 -5 -11 -13 -9 -11 -13 10 -30 14 -11 35 -20 47 -20 12
0 25 -5 28 -11 7 -10 26 -19 73 -33 16 -5 22 -4 20 6 -2 7 8 14 21 16 16 3 21
0 16 -8 -4 -7 2 -25 14 -41 l22 -30 -49 7 c-40 5 -52 3 -67 -12 -18 -19 -18
-19 14 -24 17 -3 31 -9 31 -15 -1 -5 7 -12 17 -16 10 -4 14 -8 9 -8 -5 -1 1
-12 14 -26 25 -27 21 -32 -12 -14 -18 10 -25 8 -39 -10 -11 -13 -29 -21 -48
-21 -40 0 -45 -12 -16 -40 30 -29 31 -37 4 -45 -11 -4 -18 -9 -15 -12 3 -4 -2
-12 -12 -19 -16 -13 -16 -13 1 -15 9 -1 22 -3 27 -4 6 -1 16 -3 23 -4 9 -1 9
-3 -2 -10 -10 -7 -11 -13 -2 -30 7 -12 10 -25 7 -30 -7 -11 52 -36 81 -33 12
1 33 -2 46 -7 14 -5 30 -5 40 0 14 8 16 6 15 -16 -2 -23 -11 -28 -43 -28 -6 0
-11 -8 -11 -18 0 -17 20 -25 49 -20 4 0 7 -12 7 -29 0 -22 -4 -28 -15 -24 -8
4 -22 1 -29 -5 -12 -10 -13 -8 -9 8 4 16 -1 21 -21 26 -14 3 -38 7 -52 10 -29
7 -78 -20 -68 -36 3 -6 20 -10 38 -9 68 4 72 2 46 -20 -13 -11 -20 -20 -16
-20 4 0 3 -8 -2 -17 -7 -12 -5 -21 6 -32 13 -14 12 -17 -13 -27 -17 -7 -23
-14 -16 -18 17 -11 13 -26 -6 -27 -12 -1 -10 -4 7 -9 14 -4 19 -8 13 -9 -7 -1
-13 -7 -13 -15 0 -7 -7 -19 -15 -26 -13 -11 -19 -10 -34 6 -9 11 -16 25 -14
31 2 6 -1 15 -8 19 -9 5 -10 -1 -6 -24 4 -19 2 -32 -3 -32 -10 0 -50 -36 -50
-45 0 -3 16 -5 35 -5 34 0 49 -20 25 -35 -19 -11 -10 -25 16 -25 21 0 24 -3
19 -22 -5 -21 -5 -21 8 -6 12 15 14 15 25 -3 17 -27 16 -27 -25 -31 -25 -2
-38 -8 -39 -18 -3 -54 -4 -55 -14 -40 -5 8 -10 26 -10 40 -1 23 -3 22 -21 -12
-20 -38 -35 -49 -36 -25 -7 124 -16 203 -24 213 -6 7 -12 35 -14 63 -1 27 -5
54 -9 59 -3 5 2 13 12 17 15 6 15 8 -6 25 -17 14 -24 32 -27 69 -7 98 -29 122
-41 46 -3 -25 -11 -45 -16 -45 -6 0 -7 -7 -4 -16 5 -14 4 -15 -9 -4 -13 10
-15 9 -15 -8 0 -12 -4 -24 -10 -27 -6 -4 -10 5 -10 20 0 14 -7 42 -15 62 -8
19 -15 55 -15 80 0 37 3 44 18 41 9 -1 23 1 30 5 7 5 12 4 12 -3 0 -6 12 -9
28 -6 15 2 37 5 50 5 20 1 21 4 12 22 -10 17 -8 21 9 26 12 3 21 13 21 23 0
10 8 21 17 24 22 9 6 24 -31 28 -36 4 -47 38 -13 38 18 0 19 2 7 10 -10 6 -11
10 -2 10 25 0 11 19 -24 32 -31 11 -33 14 -19 24 9 7 15 20 13 29 -3 14 -8 13
-43 -5 -45 -23 -85 -26 -85 -6 0 8 19 16 52 22 59 10 73 31 42 65 -13 14 -14
19 -3 19 20 0 -22 27 -55 36 -38 9 -28 27 26 43 34 10 47 20 51 37 3 19 -1 23
-29 28 -17 4 -37 13 -43 20 -9 11 -6 17 18 27 33 15 32 29 -2 29 -17 0 -19 2
-8 9 11 7 7 13 -16 25 -17 8 -33 13 -37 11 -3 -3 -2 1 4 7 18 21 11 48 -15 60
l-25 11 36 31 37 30 -24 9 c-13 5 -39 9 -56 8 -34 -2 -45 15 -17 26 15 6 15 8
-2 20 -19 14 -28 63 -11 63 5 0 1 8 -9 17 -11 11 -13 18 -5 21 6 2 11 10 11
18 0 8 6 14 13 14 7 1 5 6 -5 14 -10 7 -18 25 -18 39 0 14 -4 29 -10 32 -5 3
-10 -1 -10 -9 0 -9 -5 -16 -11 -16 -5 0 -7 -4 -4 -10 3 -5 2 -10 -3 -10 -5 0
-8 -11 -7 -24 2 -15 -3 -27 -12 -31 -14 -5 -14 -8 2 -25 16 -18 16 -20 1 -26
-15 -6 -15 -7 1 -20 16 -12 16 -13 2 -14 -16 0 -33 -32 -30 -58 2 -13 -4 -16
-53 -27 -36 -8 -30 -13 31 -31 26 -7 36 -12 21 -10 -16 2 -28 -1 -28 -5 0 -5
5 -9 10 -9 6 0 10 -7 10 -16 0 -13 -8 -15 -42 -10 -51 7 -77 -4 -54 -24 9 -7
13 -16 10 -21 -3 -5 2 -12 10 -15 24 -9 19 -24 -6 -24 l-23 0 25 -21 25 -20
-54 3 c-55 2 -81 -14 -42 -27 13 -4 18 -11 14 -22 -5 -12 -2 -14 18 -7 39 13
92 11 97 -5 4 -11 -2 -13 -26 -8 -31 6 -54 -7 -30 -16 7 -3 1 -6 -15 -6 -27
-1 -27 -2 -26 -55 2 -46 -2 -58 -25 -82 l-26 -29 22 -3 c13 -1 43 -10 68 -19
l45 -17 -40 -12 c-22 -7 -59 -10 -82 -7 -35 5 -43 3 -43 -11 0 -9 -6 -16 -14
-16 -19 0 -9 -38 13 -44 9 -3 32 -5 51 -6 30 0 62 -3 92 -9 4 0 5 -7 2 -15 -6
-16 -49 -36 -82 -39 -12 -1 -22 -7 -22 -14 0 -6 -7 -16 -17 -21 -14 -9 -14
-10 5 -16 24 -8 30 -26 8 -26 -8 0 -16 -6 -19 -14 -4 -10 2 -16 21 -18 17 -2
26 -8 24 -17 -2 -9 5 -12 22 -9 19 4 27 0 31 -13 4 -11 11 -19 16 -19 6 0 7
-5 4 -10 -4 -6 7 -13 24 -16 17 -4 31 -13 31 -20 0 -8 -4 -14 -8 -14 -5 0 -9
-7 -9 -15 0 -10 7 -13 22 -9 19 5 21 1 21 -30 -1 -42 -3 -44 -16 -13 l-9 22 0
-22 c-1 -13 -10 -24 -23 -29 -22 -7 -22 -7 -3 -15 19 -7 19 -8 -3 -8 -13 -1
-20 -5 -17 -11 4 -6 11 -8 16 -5 5 4 9 1 9 -4 0 -6 8 -11 18 -11 14 0 17 -11
19 -75 2 -41 1 -75 -2 -75 -2 0 -8 15 -13 33 -9 33 -38 46 -36 15 1 -10 -2
-16 -6 -13 -4 3 -11 -5 -15 -18 -4 -12 -8 -25 -10 -29 -1 -5 -3 -12 -4 -18 -2
-15 -18 -12 -41 7 -12 11 -20 30 -20 49 0 17 -7 37 -15 44 -12 10 -15 9 -15
-7 0 -10 -6 -25 -12 -32 -10 -11 -10 -14 0 -18 20 -8 14 -23 -10 -23 -22 -1
-23 -1 -4 -15 20 -15 20 -15 0 -30 -11 -8 -14 -15 -6 -15 21 0 13 -30 -10 -40
l-23 -9 23 -7 c22 -6 29 -19 14 -28 -5 -3 -7 -19 -4 -36 3 -23 0 -30 -12 -30
-9 0 -16 6 -16 14 0 8 -6 16 -12 19 -10 3 -10 7 1 20 10 13 10 17 1 17 -7 0
-10 7 -6 15 3 8 0 15 -5 15 -6 0 -9 9 -6 20 3 11 2 22 -2 25 -5 2 -8 18 -9 34
0 17 -7 40 -15 51 -14 21 -15 21 -21 -5 -4 -14 -13 -25 -21 -25 -20 0 -19 -9
2 -32 16 -18 16 -19 -5 -25 -18 -4 -20 -8 -11 -19 8 -10 8 -14 1 -14 -6 0 -9
-7 -6 -15 4 -11 0 -15 -16 -15 -15 0 -20 -5 -17 -14 3 -7 0 -19 -6 -25 -9 -10
-8 -15 5 -25 17 -12 17 -14 0 -32 -10 -10 -16 -27 -14 -36 2 -10 -1 -25 -7
-35 -7 -14 -5 -21 12 -30 22 -11 22 -12 -8 -25 -40 -18 -43 -38 -5 -38 19 0
33 -7 40 -21 7 -11 10 -22 8 -23 -2 -1 -15 -7 -30 -14 -31 -13 -36 -29 -13
-38 11 -5 12 -10 4 -26 -10 -19 -9 -20 10 -15 22 5 38 -7 22 -18 -6 -3 -8 -11
-5 -18 2 -7 -7 -19 -21 -27 -18 -9 -22 -16 -13 -21 7 -4 17 -5 23 -2 5 3 0 -3
-11 -15 -15 -14 -20 -28 -17 -46 3 -14 9 -26 13 -26 4 0 10 -9 13 -20 4 -15 0
-20 -14 -20 -10 0 -19 -4 -19 -10 0 -5 7 -10 15 -10 19 0 19 -2 -6 -50 -12
-22 -27 -40 -35 -40 -8 0 -14 -4 -14 -10 0 -5 5 -10 10 -10 6 0 14 -10 19 -22
6 -17 4 -26 -8 -35 -13 -9 -14 -14 -3 -24 16 -17 15 -29 -1 -29 -10 0 -14 -19
-15 -72 l-2 -71 26 23 c13 13 34 43 46 67 23 45 45 59 32 21 -4 -13 -7 -29 -7
-35 0 -7 -6 -13 -13 -13 -9 0 -12 -14 -11 -50 2 -27 6 -53 10 -56 10 -11 9
-26 -2 -20 -5 4 -6 -9 -1 -29 4 -19 5 -36 2 -39 -2 -3 1 -12 8 -21 10 -12 10
-15 -5 -15 -13 0 -15 -5 -9 -17 4 -10 7 -28 7 -40 -1 -13 3 -23 9 -23 5 0 6
-6 1 -12 -4 -7 -6 -20 -5 -30 2 -9 -2 -19 -8 -23 -15 -9 -12 -25 4 -25 18 0
28 -51 13 -69 -9 -10 -7 -16 7 -26 10 -8 15 -19 10 -26 -4 -7 0 -17 11 -25 13
-10 18 -29 20 -79 1 -36 -3 -65 -8 -65 -5 0 -4 -6 2 -14 7 -8 11 -20 11 -28
-3 -22 11 -56 26 -62 8 -3 14 -20 14 -41 0 -24 4 -35 15 -35 8 0 15 -9 15 -21
0 -22 22 -74 77 -183 19 -37 32 -71 29 -74 -9 -8 -105 39 -140 68 l-29 25 7
-60 c18 -166 85 -336 164 -419 l37 -38 -35 5 c-19 4 -80 9 -134 13 l-99 7 21
-31 c12 -16 51 -60 85 -96 66 -68 119 -98 197 -111 24 -4 60 -13 79 -20 35
-12 35 -12 -36 -18 -79 -8 -168 -27 -252 -55 l-54 -18 114 -115 c103 -104 124
-120 219 -167 66 -33 120 -53 146 -55 l40 -2 -22 -45 c-13 -25 -24 -54 -26
-65 -3 -18 2 -20 47 -16 63 4 106 22 171 71 49 37 114 120 114 146 0 7 -10 16
-22 20 -23 7 -22 7 5 17 15 5 53 24 84 43 64 38 71 40 79 19 4 -8 17 -15 31
-15 13 0 52 -20 86 -44 55 -39 135 -87 177 -106 59 -27 76 -39 87 -60 13 -25
13 -25 13 -2 l0 22 38 -18 c20 -11 54 -25 74 -31 35 -12 38 -15 36 -50 -2 -62
68 -152 126 -162 26 -5 24 -21 -5 -36 -22 -12 -22 -12 20 -19 23 -4 45 -13 48
-21 4 -10 15 -13 34 -9 30 6 39 -10 18 -31 -8 -8 -7 -13 1 -18 6 -4 16 -3 22
3 8 8 16 4 29 -11 10 -13 18 -16 19 -9 0 15 87 7 108 -11 9 -7 16 -7 24 1 7 7
21 12 31 12 12 0 17 5 14 13 -3 7 23 -13 57 -46 69 -66 214 -145 228 -124 13
21 8 70 -16 142 -25 75 -21 111 12 101 12 -4 21 2 27 16 6 13 28 33 50 45 37
21 52 23 220 23 257 1 454 30 653 96 88 29 109 30 130 4 12 -14 34 -21 72 -25
30 -3 63 -8 72 -11 13 -4 16 -1 12 10 -7 19 16 22 34 4 9 -9 12 -7 12 11 0 17
4 22 16 17 8 -3 23 -2 33 4 12 6 24 5 37 -4 35 -24 80 -27 99 -7 11 13 13 21
6 26 -8 4 -8 12 -1 26 7 12 7 19 1 19 -6 0 -8 7 -5 15 4 8 12 15 20 15 8 0 14
7 14 15 0 8 -4 15 -10 15 -5 0 -10 10 -10 23 0 20 -5 22 -42 22 -36 0 -44 4
-46 20 -2 16 8 26 45 44 56 27 150 92 246 169 l69 56 -39 23 c-71 44 -138 71
-203 84 -108 20 -149 51 -154 113 -2 20 -11 45 -20 54 -9 10 -16 28 -16 39 0
11 -6 26 -14 33 -12 9 -16 5 -22 -24 -3 -20 -10 -39 -15 -42 -5 -3 -9 -14 -9
-25 0 -24 -8 -24 -95 0 -89 24 -132 30 -282 41 -157 11 -277 46 -333 97 -22
19 -40 43 -40 52 0 9 -6 23 -12 30 -7 6 -13 15 -14 19 -1 21 -39 132 -45 132
-4 0 -12 -30 -20 -67 -12 -65 -13 -66 -22 -38 -5 17 -12 32 -14 35 -7 8 -23
-24 -23 -47 0 -13 -6 -23 -14 -23 -12 0 -57 32 -91 65 -19 18 -52 79 -59 108
-3 15 -11 27 -16 27 -6 0 -10 12 -10 28 0 15 -7 38 -17 51 -15 22 -15 25 0 36
10 7 17 20 17 29 0 34 -30 51 -180 103 -45 16 -80 39 -80 54 0 4 23 12 50 18
144 31 158 67 35 91 -33 6 -89 17 -124 23 -109 21 -88 40 69 66 36 6 83 13
105 16 l40 5 -41 -19 c-57 -27 -62 -39 -17 -47 65 -13 174 -7 278 14 55 12
103 18 107 14 14 -14 -29 -49 -69 -57 -21 -3 -53 -18 -72 -33 -19 -14 -31 -20
-26 -12 6 10 1 12 -25 7 -45 -10 -64 -26 -49 -43 9 -11 32 -12 103 -8 96 7
107 -2 31 -26 -72 -23 -83 -54 -23 -63 18 -2 73 -13 121 -23 76 -15 92 -16
110 -4 20 12 21 11 9 -2 -10 -13 -9 -17 10 -22 13 -3 32 -6 43 -6 11 0 38 -5
60 -11 l39 -11 -22 -18 c-15 -12 -48 -21 -100 -25 -76 -7 -132 -26 -132 -45 0
-20 60 -39 151 -49 119 -14 302 -45 355 -61 22 -7 51 -21 65 -31 24 -19 24
-19 4 -35 -11 -9 -35 -23 -53 -30 -66 -29 -52 -63 36 -87 67 -19 325 -70 432
-87 149 -23 370 -77 436 -106 64 -28 74 -29 74 -9 0 8 6 15 13 15 13 0 58 -28
67 -42 3 -4 26 3 52 16 35 18 44 26 37 38 -6 12 6 31 47 74 30 33 73 82 93
109 21 28 50 64 65 80 15 17 31 36 37 43 9 11 15 10 32 -5 22 -19 16 -2 -10
28 -12 15 -12 19 5 30 10 8 22 27 26 42 4 15 17 33 31 39 24 11 35 38 16 38
-5 0 13 43 40 96 27 53 61 135 75 182 15 48 31 90 37 93 5 4 7 14 4 23 -9 23
9 66 28 66 9 0 15 9 15 25 0 14 4 25 10 25 5 0 18 9 28 20 19 20 19 20 37 0
11 -12 26 -18 39 -15 16 4 24 -1 33 -22 9 -19 10 -29 2 -34 -11 -6 18 -19 59
-25 26 -3 28 4 6 34 -9 13 -17 44 -18 70 -3 47 -14 103 -22 111 -2 2 1 10 6
16 8 9 2 20 -20 39 -18 14 -37 26 -43 27 -7 1 -1 4 13 8 l25 7 -32 17 c-26 14
-33 24 -33 47 0 16 -4 31 -9 34 -5 4 -8 17 -6 31 1 16 -3 25 -11 25 -20 0 -17
14 6 35 15 14 17 21 9 32 -9 10 -8 13 1 13 7 0 10 6 7 14 -3 7 -1 18 5 24 8 8
7 13 -5 18 -9 3 -17 12 -17 20 0 8 -4 14 -9 14 -4 0 -6 18 -4 40 2 24 0 40 -6
40 -6 0 -11 5 -11 10 0 6 9 10 20 10 11 0 20 -7 20 -16 0 -13 3 -13 28 1 38
23 75 144 73 240 -1 11 -1 32 -1 47 0 34 -37 59 -46 31 -3 -10 -12 -31 -20
-46 -8 -16 -12 -33 -8 -38 3 -5 -2 -9 -11 -9 -9 0 -13 -4 -10 -10 3 -5 1 -10
-4 -10 -6 0 -11 -9 -11 -20 0 -23 -13 -26 -29 -6 -10 11 -8 17 6 25 14 8 15
11 3 11 -12 0 -11 4 4 15 11 8 17 18 13 21 -4 4 2 14 14 22 11 7 18 19 17 24
-2 6 9 25 24 42 31 33 34 46 17 63 -8 8 -16 9 -29 1 -22 -14 -70 -2 -70 17 0
8 -7 15 -15 15 -23 0 -18 17 8 24 20 6 21 7 4 17 -14 8 -16 14 -6 25 9 11 9
17 -1 29 -9 11 -10 18 -1 29 9 11 7 15 -11 21 l-23 8 23 4 c20 4 21 6 6 20
-13 13 -13 17 -2 24 10 7 10 9 1 9 -21 0 -62 41 -56 56 3 8 0 14 -6 14 -6 0
-11 10 -11 21 0 18 3 19 15 9 8 -6 19 -9 25 -5 6 4 18 1 27 -7 12 -9 15 -9 9
0 -5 8 -1 12 13 12 11 0 32 5 48 11 27 10 28 11 8 25 -11 8 -28 21 -38 30 -17
14 -23 14 -58 0 -41 -17 -57 -8 -40 21 7 14 5 21 -12 30 -19 10 -13 11 36 7
47 -4 57 -3 57 10 0 9 9 16 20 16 27 0 25 18 -5 42 -19 14 -23 24 -16 32 7 9
7 16 -2 25 -9 9 -7 13 10 17 37 10 39 41 5 73 -34 33 -45 58 -30 67 7 5 8 2 3
-6 -6 -10 -4 -12 9 -7 10 4 31 7 48 7 27 0 29 2 17 16 -10 13 -24 15 -64 10
l-50 -7 29 26 c16 14 34 25 39 25 6 0 2 9 -8 20 -10 11 -23 20 -29 20 -6 0
-11 14 -12 31 -1 24 2 30 16 26 10 -2 24 -1 31 4 12 8 11 11 -1 19 -8 5 -24
10 -34 10 -19 0 -19 0 -1 13 17 13 17 14 -5 20 -20 5 -21 8 -10 21 8 11 9 16
1 16 -7 0 -10 17 -7 50 2 28 -1 53 -6 56 -6 4 -5 10 3 15 12 8 12 10 1 18 -8
4 -13 11 -13 15 1 3 1 14 1 24 -1 15 -3 14 -19 -5 -21 -25 -28 -128 -10 -149
14 -17 14 -17 -36 0 -37 13 -40 17 -39 50 1 20 -2 36 -7 36 -14 0 -10 30 4 30
7 1 5 6 -5 14 -21 15 -23 37 -6 54 10 10 10 15 -1 21 -8 5 -11 16 -7 26 3 9
-1 26 -9 38 -13 19 -15 19 -15 4 0 -10 -4 -15 -10 -12 -6 4 -10 -7 -10 -24 0
-21 -5 -31 -15 -31 -19 0 -19 -9 1 -32 14 -14 15 -20 4 -33 -11 -13 -10 -18 5
-29 25 -18 7 -25 -40 -16 -22 4 -34 8 -27 9 9 1 5 11 -12 32 -18 21 -24 38
-20 53 3 15 -1 29 -11 40 -16 16 -16 18 1 32 18 14 18 14 1 25 -18 10 -18 12
-1 30 16 18 16 19 -9 19 -31 0 -34 8 -9 26 9 7 12 14 6 14 -7 0 -15 17 -19 38
-6 32 -8 34 -15 16 -5 -12 -18 -29 -30 -37 -12 -8 -17 -18 -12 -21 14 -9 9
-32 -13 -56 -19 -21 -95 -29 -95 -10 0 5 -7 7 -15 4 -8 -4 -15 -1 -15 5 0 7
15 8 45 4 38 -5 45 -3 45 12 0 11 -5 15 -16 11 -8 -3 -12 -2 -9 4 3 6 1 10 -6
10 -8 0 -9 3 0 13 6 8 7 17 3 22 -4 4 3 5 16 2 12 -3 19 -1 16 4 -3 5 5 13 18
18 l23 8 -22 7 c-12 4 -28 18 -37 31 -14 22 -14 25 0 33 12 7 10 11 -12 21
-26 11 -26 12 -8 26 17 13 18 14 2 15 -23 0 -23 16 -1 28 14 9 14 11 -7 22
l-23 13 24 12 c23 13 22 13 -23 20 -26 4 -51 4 -57 0 -6 -3 -18 0 -26 8 -13
13 -13 16 1 21 9 3 24 6 35 6 10 0 19 4 19 9 0 13 -27 21 -45 15 -23 -9 -18 5
13 31 l27 24 -34 1 c-29 0 -32 2 -21 15 11 13 10 18 -6 29 -18 14 -18 15 9 27
l28 13 -28 12 c-19 8 -22 13 -10 13 17 1 25 21 8 21 -5 0 -8 27 -7 60 0 33 -2
60 -5 60 -4 0 -10 19 -14 43 -6 31 -9 36 -12 19 -3 -12 -9 -20 -14 -17 -9 6
-12 -29 -11 -107 0 -28 -4 -38 -15 -38 -13 0 -13 -3 -2 -16 11 -13 10 -18 -5
-26 -18 -10 -18 -12 5 -30 17 -14 20 -21 11 -25 -10 -4 -10 -8 -1 -19 9 -11 8
-14 -2 -14 -10 -1 -9 -4 4 -14 16 -12 15 -14 -13 -19 -37 -8 -38 -20 -5 -35
26 -12 33 -31 13 -34 -7 0 -17 -2 -23 -3 -5 -2 -14 -4 -20 -5 -5 -1 1 -5 15
-9 30 -8 33 -34 5 -39 -49 -7 -65 -13 -60 -22 3 -6 2 -10 -3 -10 -6 0 -12 -6
-15 -14 -5 -13 39 -53 65 -58 17 -4 38 -30 32 -40 -3 -5 -16 -8 -30 -8 -13 0
-24 -4 -24 -8 0 -4 -24 -16 -52 -26 -73 -26 -90 -42 -76 -71 11 -24 51 -41 69
-30 5 4 12 -1 15 -9 3 -9 15 -16 25 -16 10 0 19 -4 19 -10 0 -5 7 -6 17 -3 10
4 14 2 10 -4 -4 -7 8 -21 28 -33 36 -22 43 -34 24 -46 -6 -3 -8 -17 -5 -30 5
-18 2 -24 -9 -24 -9 0 -14 -4 -11 -9 4 -5 0 -12 -6 -14 -7 -3 -2 -6 12 -7 l25
-1 -24 -13 c-19 -11 -21 -14 -7 -19 24 -9 19 -27 -6 -27 -18 0 -20 -2 -9 -9
12 -8 12 -12 2 -24 -9 -12 -9 -16 1 -20 8 -4 7 -6 -4 -6 -25 -1 -23 -32 2 -38
28 -7 25 -28 -4 -29 -17 -1 -28 7 -39 30 -14 27 -16 28 -16 9 -1 -13 -5 -23
-11 -23 -5 0 -7 -7 -4 -15 4 -8 2 -15 -4 -15 -6 0 -8 -9 -5 -20 3 -11 1 -20
-3 -20 -5 0 -10 -25 -11 -56 -1 -63 -6 -72 -28 -54 -14 12 -15 8 -9 -28 7 -44
-3 -54 -27 -26 -14 16 -51 37 -86 48 -19 6 -22 3 -25 -23 l-3 -30 -51 42 c-28
23 -61 57 -73 75 -21 31 -24 33 -40 18 -16 -15 -20 -13 -51 19 -37 38 -50 43
-50 20 0 -8 -5 -15 -12 -15 -6 0 -32 -10 -56 -21 -37 -18 -46 -19 -53 -8 -13
20 -11 29 6 29 22 0 18 23 -5 38 -18 11 -20 23 -20 100 0 84 1 89 24 102 14 7
40 31 58 54 l32 41 -48 -42 c-76 -67 -80 -64 -74 77 4 97 9 124 23 140 22 25
47 27 38 3 -4 -11 -3 -14 5 -9 7 4 12 14 12 21 0 8 11 22 24 31 22 14 28 14
53 2 15 -8 27 -20 25 -27 -8 -39 42 -67 67 -37 9 11 20 12 42 6 33 -10 62 -3
53 11 -3 5 2 9 10 9 19 0 21 16 4 26 -8 5 -6 10 8 15 16 6 13 10 -21 25 -31
14 -36 19 -21 22 28 6 50 29 33 35 -7 2 0 10 16 17 15 7 27 17 27 21 0 15 -42
31 -68 26 -27 -5 -72 10 -72 25 0 4 -9 8 -20 8 -11 0 -20 5 -20 11 0 7 -11 9
-29 6 -28 -6 -29 -5 -28 28 2 40 1 39 29 24 12 -6 18 -7 14 -1 -3 5 10 13 30
17 20 3 33 9 30 12 -3 3 15 19 40 35 25 16 44 34 41 41 -2 6 -28 17 -58 23
-30 7 -48 13 -41 14 6 1 17 4 22 5 6 1 21 3 34 4 16 1 31 13 46 38 25 42 17
53 -40 53 -19 0 -42 5 -50 10 -13 8 -11 12 8 26 l23 16 -31 30 c-30 28 -31 30
-10 35 13 4 19 11 16 20 -3 8 -6 17 -6 19 0 2 -7 4 -16 4 -8 0 -12 -4 -9 -10
3 -5 -1 -10 -9 -10 -9 0 -16 -4 -16 -9 0 -12 -51 -4 -64 10 -6 5 -18 9 -27 9
-10 0 -21 5 -25 11 -11 18 14 33 58 34 39 0 43 2 43 25 0 19 -9 29 -40 45
l-40 20 33 3 c17 2 32 6 33 10 6 48 4 54 -23 73 -15 11 -28 26 -28 34 0 7 -7
12 -16 11 -17 -1 -42 29 -33 39 3 3 27 7 53 9 55 4 74 17 52 35 -8 7 -12 19
-9 27 3 9 -1 14 -12 14 -9 0 -13 5 -9 11 4 8 -7 10 -39 8 -39 -4 -44 -2 -34
11 44 56 39 71 -19 63 -18 -3 -39 -1 -49 4 -14 8 -12 12 17 22 72 27 80 42 41
74 l-23 19 22 17 21 18 -34 7 c-37 8 -35 10 36 37 l30 11 -25 11 c-14 6 -46 9
-73 8 -47 -3 -47 -3 -45 28 2 24 9 33 33 42 l30 12 -33 6 c-41 7 -45 22 -9 39
33 16 35 30 5 34 -16 2 -24 11 -25 28 -2 14 -4 36 -6 50 -2 14 0 30 4 35 3 6
-1 26 -9 45 l-15 35 -10 -37 c-5 -21 -14 -38 -19 -38 -6 0 -6 -6 2 -15 6 -8 9
-19 5 -25 -4 -6 -1 -17 5 -25 10 -12 9 -15 -6 -15 -14 0 -15 -3 -6 -12 19 -19
14 -33 -15 -45 l-28 -10 30 -12 c23 -10 26 -14 15 -21 -8 -6 -33 -10 -55 -10
-39 -1 -40 -1 -17 -17 25 -18 29 -33 7 -33 -28 0 -15 -18 18 -26 l32 -7 -25
-9 c-14 -5 -40 -7 -57 -4 -18 2 -33 1 -33 -5 0 -5 9 -9 21 -9 17 0 19 -4 13
-22 -4 -13 -17 -32 -29 -44 -20 -18 -21 -22 -7 -31 14 -8 9 -12 -25 -24 -31
-10 -40 -18 -34 -27 11 -18 62 -5 54 14 -4 11 2 13 28 8 19 -4 39 -11 44 -16
6 -6 -1 -7 -20 -2 -16 4 -27 3 -23 -1 5 -5 -1 -15 -13 -23 -19 -13 -19 -15 -4
-32 16 -17 15 -19 -5 -30 -12 -6 -27 -9 -34 -7 -7 3 -22 -6 -35 -19 -13 -13
-28 -24 -34 -24 -7 0 0 -11 15 -25 24 -22 26 -28 16 -45 -8 -13 -26 -20 -53
-22 -35 -3 -40 -6 -43 -30 -3 -22 0 -26 17 -21 12 3 21 1 21 -6 0 -6 7 -11 16
-11 14 0 14 -3 4 -15 -10 -12 -10 -15 0 -15 10 0 10 -3 1 -14 -16 -19 -2 -27
52 -33 65 -6 90 -4 98 9 11 17 60 -37 53 -57 -4 -9 -19 -15 -38 -16 -17 0 -49
-3 -70 -7 -38 -7 -39 -8 -22 -25 15 -14 15 -17 2 -17 -18 0 -40 -36 -40 -67 0
-29 44 -73 75 -73 27 0 49 -16 49 -37 0 -18 -49 -28 -72 -14 -10 6 -26 16 -37
23 -15 9 -26 8 -54 -5 -19 -9 -40 -17 -46 -17 -6 0 -9 -10 -7 -22 2 -15 9 -22
21 -20 10 2 14 -1 10 -7 -3 -6 2 -11 12 -11 12 0 23 -12 30 -31 7 -17 16 -28
21 -25 6 3 15 -1 22 -9 17 -20 -5 -20 -42 -1 -30 16 -68 11 -68 -9 0 -8 -2
-20 -5 -27 -4 -10 7 -17 37 -24 33 -7 44 -14 46 -31 4 -24 16 -30 27 -13 3 6
14 10 24 10 10 0 25 7 32 16 23 28 98 6 99 -30 0 -5 -19 -6 -42 -3 -29 4 -37
3 -23 -3 l20 -9 -20 0 c-17 -1 -17 -3 -5 -11 11 -7 7 -10 -18 -10 -35 0 -101
-24 -103 -37 -5 -47 -7 -60 -13 -75 -8 -17 18 -32 44 -26 7 2 14 -11 16 -29 4
-31 2 -33 -29 -32 -17 0 -41 4 -52 8 -23 10 -55 -4 -55 -23 0 -7 -9 -17 -20
-22 -19 -9 -19 -9 5 -21 14 -6 23 -7 20 -2 -3 5 7 2 22 -6 39 -19 62 -27 101
-31 27 -2 33 0 28 12 -4 12 -2 12 14 4 11 -6 20 -15 20 -20 0 -6 10 -8 23 -6
12 2 28 -1 35 -6 9 -8 12 -4 12 13 0 31 35 55 56 38 11 -9 14 -8 14 5 0 9 4
16 9 16 13 0 9 -200 -4 -202 -5 0 -18 11 -29 26 -20 26 -20 28 -3 58 16 28 16
30 1 17 -9 -7 -27 -31 -40 -51 -29 -46 -76 -72 -116 -64 -18 3 -27 2 -23 -4 8
-14 56 -13 86 2 14 7 35 25 47 41 l20 29 16 -30 c9 -17 25 -37 36 -45 19 -13
20 -23 18 -137 -2 -80 -7 -125 -14 -127 -6 -2 -36 21 -66 51 -49 50 -56 54
-70 40 -14 -14 -24 -6 -104 81 -76 82 -167 155 -179 143 -2 -1 -6 -52 -10
-113 -5 -82 -15 -136 -38 -212 -28 -91 -36 -104 -63 -117 -31 -16 -92 -76
-154 -155 -19 -24 -78 -72 -130 -106 -52 -35 -111 -78 -130 -97 -120 -113
-196 -151 -93 -46 31 32 42 48 31 48 -35 0 -219 -175 -249 -236 -11 -24 -27
-48 -36 -56 -15 -12 -16 -10 -9 17 4 17 16 38 28 48 11 10 19 19 17 21 -2 3
-34 -18 -71 -45 -58 -42 -68 -46 -68 -29 0 28 225 257 335 340 50 37 117 95
150 129 33 33 62 61 66 61 4 0 -13 -35 -37 -77 -46 -81 -50 -93 -34 -93 33 0
358 310 391 374 24 44 50 128 44 135 -6 5 -3 9 -53 -66 -23 -34 -50 -68 -59
-75 -27 -20 -123 -149 -123 -164 0 -15 -56 -54 -79 -54 -10 0 -12 9 -6 36 6
36 6 36 -21 30 -22 -6 -15 6 50 76 72 78 155 213 140 227 -4 3 -9 0 -11 -6 -3
-7 -41 -59 -86 -115 -45 -57 -96 -122 -114 -145 -18 -24 -50 -58 -70 -77 -21
-19 -55 -51 -77 -70 -47 -44 -65 -47 -34 -6 12 17 25 30 30 30 4 0 12 9 18 19
15 29 -105 -54 -130 -89 -13 -19 -26 -27 -39 -23 -28 7 -144 -97 -127 -114 4
-5 73 34 99 55 9 9 19 13 22 10 7 -7 -91 -105 -147 -148 -24 -18 -56 -49 -71
-68 l-27 -35 0 85 0 86 38 33 c20 19 51 44 67 57 42 33 10 15 -47 -25 -26 -19
-49 -39 -52 -46 -2 -7 -5 3 -5 21 -1 18 3 31 8 28 5 -3 26 13 47 37 21 23 42
41 45 40 4 -1 5 6 2 15 -3 12 14 36 50 73 40 39 53 59 48 72 -6 15 -10 13 -31
-15 -13 -18 -23 -34 -22 -36 2 -1 -11 -14 -28 -29 l-31 -26 -35 19 c-20 11
-40 25 -46 32 -12 14 -25 384 -14 426 3 14 12 26 19 26 6 0 37 23 67 51 52 49
42 44 -47 -21 -18 -13 -35 -22 -37 -19 -3 2 -1 83 3 179 4 96 3 191 -1 210 -4
19 -8 85 -8 146 0 109 0 111 25 122 46 21 109 15 135 -13 13 -14 18 -25 12
-25 -7 0 -12 -4 -12 -10 0 -5 9 -10 21 -10 23 0 60 -18 71 -34 5 -6 8 -1 8 12
0 18 6 22 30 22 18 0 33 6 36 15 4 8 14 15 23 16 10 0 11 2 4 6 -16 6 -17 43
-2 43 5 0 7 5 4 10 -11 18 -86 11 -126 -12 -45 -25 -54 -22 -36 15 9 20 24 29
60 38 26 6 59 9 72 6 34 -6 53 18 26 33 -23 12 -29 32 -8 27 6 -1 12 4 11 11
-3 43 -4 44 -26 39 -34 -9 -57 9 -53 40 2 16 4 29 6 31 1 1 2 5 3 10 1 4 4 12
8 17 11 17 -19 46 -56 55 -30 7 -39 5 -50 -12 -12 -17 -21 -18 -59 -13 -33 5
-44 11 -40 21 3 8 -1 14 -8 14 -8 0 1 8 19 17 40 19 37 31 -13 57 -21 11 -33
22 -27 24 7 2 10 8 6 13 -3 5 2 9 10 9 9 0 16 7 16 15 0 10 -10 15 -33 15 -45
0 -65 18 -71 65 -3 22 -3 32 0 23 7 -22 5 -22 50 -1 35 17 36 17 50 -2 15 -20
15 -20 20 0 7 29 67 64 119 72 34 4 45 10 45 23 0 18 -19 30 -48 30 -9 0 -28
9 -42 20 -23 18 -23 20 -5 20 11 0 26 4 34 9 12 8 12 11 0 23 -8 8 -22 17 -31
21 -24 9 -23 28 2 34 30 8 24 33 -10 46 -16 6 -30 14 -30 18 0 4 -11 10 -25
13 -23 6 -24 9 -12 29 6 12 18 30 26 40 13 15 11 17 -17 17 -18 0 -32 5 -32
10 0 6 -16 10 -35 10 -19 0 -35 4 -35 9 0 5 6 9 13 8 46 -1 59 3 48 17 -9 11
-5 16 26 25 36 10 35 10 -22 7 -52 -4 -57 -3 -35 7 26 13 40 47 18 47 -9 0 -9
3 0 12 9 9 8 16 -5 30 -11 13 -12 18 -3 18 10 0 10 3 0 15 -10 12 -10 15 1 15
11 0 11 2 -1 10 -13 8 -13 10 0 10 12 0 11 3 -2 17 -16 15 -16 17 0 30 15 11
15 14 2 23 -13 9 -13 11 0 20 10 7 11 13 5 18 -6 4 -18 22 -26 40 l-16 33 -13
-48z m1373 -470 c-7 -2 -21 -2 -30 0 -10 3 -4 5 12 5 17 0 24 -2 18 -5z m-48
-62 c10 -18 -34 -23 -57 -7 -22 16 -22 16 14 16 20 0 39 -4 43 -9z m-51 -331
c14 -5 26 -14 26 -20 0 -6 -12 -4 -30 5 -44 23 -42 33 4 15z m96 -70 c0 -5 -7
-10 -16 -10 -8 0 -12 5 -9 10 3 6 10 10 16 10 5 0 9 -4 9 -10z m-2380 -40 c0
-5 -7 -10 -16 -10 -8 0 -12 5 -9 10 3 6 10 10 16 10 5 0 9 -4 9 -10z m2457
-26 c-3 -3 -12 -4 -19 -1 -8 3 -5 6 6 6 11 1 17 -2 13 -5z m73 -4 c-20 -13
-40 -13 -40 0 0 6 12 10 28 10 21 0 24 -2 12 -10z m-2450 -66 c0 -14 -12 -19
-23 -8 -9 9 4 35 14 28 5 -3 9 -12 9 -20z m850 13 c0 -5 6 -4 13 2 8 6 17 8
20 4 14 -13 6 -30 -19 -42 -23 -10 -28 -9 -41 9 -8 11 -21 20 -29 20 -8 0 -13
4 -10 8 7 12 66 11 66 -1z m250 -45 c-8 -3 -19 -11 -23 -19 -10 -16 -27 -8
-27 14 0 9 6 13 15 10 8 -4 17 -2 20 4 4 5 11 6 18 2 8 -5 7 -8 -3 -11z m1217
-102 c2 0 3 -11 3 -25 0 -32 -5 -31 -45 4 -39 34 -36 43 8 30 18 -5 33 -9 34
-9z m63 -9 c0 -5 -6 -14 -14 -20 -16 -13 -32 2 -21 19 8 12 35 13 35 1z m-107
-35 c4 -10 0 -12 -15 -8 -15 4 -17 7 -6 13 17 11 15 11 21 -5z m-1278 -6 c3
-5 -1 -10 -9 -10 -9 0 -16 5 -16 10 0 6 4 10 9 10 6 0 13 -4 16 -10z m-52 -75
c-3 -9 -8 -14 -10 -11 -3 3 -2 9 2 15 9 16 15 13 8 -4z m1544 -64 c2 -12 9
-32 15 -44 32 -57 9 -107 -49 -107 -19 0 -43 -5 -54 -10 -17 -10 -19 -7 -19
35 0 38 3 45 20 45 11 0 20 7 20 15 0 8 7 15 16 15 25 0 49 29 35 43 -14 14
-14 40 1 35 6 -2 13 -14 15 -27z m-264 -2 c6 -23 -18 -38 -35 -21 -7 7 -6 15
3 26 19 21 26 20 32 -5z m117 -99 c0 -11 -7 -20 -15 -20 -15 0 -21 21 -8 33
12 13 23 7 23 -13z m-2320 -24 c0 -3 -4 -8 -10 -11 -5 -3 -10 -1 -10 4 0 6 5
11 10 11 6 0 10 -2 10 -4z m-55 -15 c7 -12 -12 -24 -25 -16 -11 7 -4 25 10 25
5 0 11 -4 15 -9z m2515 -31 c0 -5 -7 -10 -16 -10 -8 0 -12 5 -9 10 3 6 10 10
16 10 5 0 9 -4 9 -10z m-2505 -20 c3 -6 -1 -7 -9 -4 -18 7 -21 14 -7 14 6 0
13 -4 16 -10z m-139 -37 c1 -14 -3 -20 -12 -16 -8 3 -14 9 -14 15 0 5 -4 6
-10 3 -6 -3 -7 1 -4 10 9 23 39 14 40 -12z m2438 -25 c-5 -8 -1 -9 12 -4 14 5
16 4 8 -4 -6 -6 -19 -8 -28 -4 -14 5 -15 9 -4 15 18 12 20 11 12 -3z m-3091
-23 c-8 -22 -22 -18 -16 5 3 11 9 17 14 15 4 -3 6 -12 2 -20z m3269 -75 l28
-13 -33 -22 c-46 -31 -64 -36 -71 -19 -7 19 9 61 26 67 15 5 15 5 50 -13z
m118 -1 c0 -5 -7 -9 -15 -9 -8 0 -15 7 -15 15 0 9 6 12 15 9 8 -4 15 -10 15
-15z m514 -25 c19 -7 21 -34 3 -34 -14 0 -37 20 -37 32 0 10 13 10 34 2z
m-3047 -34 c-1 -22 -23 -15 -30 9 -3 14 0 17 14 14 9 -3 17 -13 16 -23z m198
-99 c-14 -14 -73 -26 -60 -13 6 5 19 12 30 15 34 8 40 8 30 -2z m-975 -11 c17
-10 14 -15 -17 -24 -25 -8 -42 12 -22 25 17 11 21 11 39 -1z m60 -10 c0 -5 -4
-10 -9 -10 -6 0 -13 5 -16 10 -3 6 1 10 9 10 9 0 16 -4 16 -10z m3902 -50
c-12 -10 -18 -21 -14 -26 4 -5 1 -4 -7 2 -21 19 -5 53 21 46 l21 -5 -21 -17z
m9 -86 c18 -21 8 -24 -29 -8 -18 7 -31 18 -28 23 8 12 42 3 57 -15z m-1211
-64 c5 -20 16 -44 24 -55 21 -28 20 -38 -4 -25 -11 6 -20 18 -20 28 -1 9 -9
42 -20 72 -13 39 -14 49 -4 35 8 -11 19 -35 24 -55z m1220 10 c0 -5 -4 -10
-10 -10 -5 0 -10 5 -10 10 0 6 5 10 10 10 6 0 10 -4 10 -10z m-3210 -27 c0 -7
-7 -13 -15 -13 -8 0 -15 6 -15 13 0 8 7 14 15 14 8 0 15 -6 15 -14z m-45 -3
c13 -22 -18 -48 -56 -46 -22 0 -34 5 -29 10 5 5 6 14 3 21 -7 19 71 33 82 15z
m3585 -29 c0 -9 -24 -21 -41 -21 -5 0 -9 7 -9 15 0 9 9 15 25 15 14 0 25 -4
25 -9z m-4250 -54 c0 -40 -24 -93 -47 -101 -23 -9 -29 2 -15 24 7 11 12 31 12
45 0 14 5 25 11 25 6 0 9 6 6 14 -7 16 1 26 20 26 8 0 13 -12 13 -33z m4150
23 c0 -5 -9 -10 -20 -10 -11 0 -20 5 -20 10 0 6 9 10 20 10 11 0 20 -4 20 -10z
m-3496 -25 c-4 -8 -12 -15 -20 -15 -20 0 -17 18 4 23 9 3 18 5 19 6 1 0 0 -6
-3 -14z m3588 -10 c-5 -25 -2 -22 -36 -31 -24 -6 -27 -4 -24 12 2 11 9 18 16
17 6 -2 9 4 5 13 -4 12 0 15 18 12 18 -2 23 -8 21 -23z m-1515 -22 c38 -56 56
-116 28 -93 -17 14 -65 94 -65 109 0 20 18 11 37 -16z m1643 13 c0 -8 -5 -18
-10 -21 -6 -4 -8 -15 -5 -25 3 -10 2 -21 -3 -23 -14 -10 -35 10 -29 27 4 9 2
16 -3 16 -6 0 -10 9 -10 20 0 16 7 20 30 20 19 0 30 -5 30 -14z m-3690 -3 c0
-5 -5 -15 -10 -23 -8 -12 -10 -11 -10 8 0 12 5 22 10 22 6 0 10 -3 10 -7z m66
-30 c-10 -10 -19 5 -10 18 6 11 8 11 12 0 2 -7 1 -15 -2 -18z m-22 1 c4 -9 4
-19 1 -22 -6 -6 -35 18 -35 29 0 16 28 10 34 -7z m118 -15 c15 -4 15 -6 3 -23
-12 -16 -17 -17 -30 -6 -8 7 -15 21 -15 32 0 15 3 18 13 10 6 -5 20 -11 29
-13z m-44 -32 c4 -21 -24 -57 -44 -57 -8 0 -11 6 -8 15 4 10 0 15 -15 15 -26
0 -27 18 -3 36 24 19 66 13 70 -9z m-170 -13 c6 -1 16 -2 21 -2 5 -1 -7 -19
-27 -41 -31 -32 -39 -36 -46 -23 -6 10 -4 19 8 27 9 7 16 23 16 36 0 13 4 20
8 14 4 -5 13 -10 20 -11z m3740 -14 l32 -30 -34 0 c-26 0 -35 5 -39 22 -5 19
-2 38 7 38 2 0 17 -13 34 -30z m-4418 -20 c-18 -11 -24 -6 -16 16 5 14 9 15
19 5 9 -9 9 -14 -3 -21z m3011 -7 c13 -16 12 -17 -3 -4 -10 7 -18 15 -18 17 0
8 8 3 21 -13z m-223 -41 c8 -12 10 -22 4 -22 -5 0 -17 12 -27 26 -11 17 -13
25 -4 22 7 -2 19 -14 27 -26z m1050 -24 c-3 -34 -20 -42 -26 -13 -5 22 5 45
18 45 7 0 10 -14 8 -32z m59 0 c-3 -7 -5 -2 -5 12 0 14 2 19 5 13 2 -7 2 -19
0 -25z m-1374 -5 c-6 -16 -5 -16 10 -4 15 12 15 10 0 -35 -9 -27 -18 -43 -21
-36 -6 18 -20 15 -50 -13 -49 -46 -60 -24 -12 25 16 17 37 42 46 55 19 29 37
33 27 8z m1707 -33 c0 -5 -5 -10 -11 -10 -5 0 -7 5 -4 10 3 6 8 10 11 10 2 0
4 -4 4 -10z m-1570 -60 c-4 -3 -14 -25 -21 -49 -10 -34 -33 -65 -97 -128 -46
-46 -79 -83 -75 -83 19 0 78 44 118 88 128 141 139 148 64 46 -50 -68 -108
-114 -199 -157 -117 -56 -165 -86 -162 -101 1 -8 -3 -18 -9 -22 -9 -5 -10 -2
-6 9 3 10 2 17 -3 17 -5 0 -10 -10 -12 -22 -2 -12 -9 -23 -17 -26 -8 -3 -11 0
-7 6 14 23 -15 21 -66 -2 -52 -25 -52 -25 -25 -3 15 13 44 29 65 36 20 7 67
30 103 51 58 34 71 48 113 119 46 79 76 115 63 75 -4 -10 13 3 38 31 25 27 45
54 45 59 0 5 11 24 25 42 14 18 25 37 25 41 0 5 6 15 13 22 10 10 14 7 24 -16
6 -15 7 -30 3 -33z m634 11 c21 -21 25 -31 15 -31 -15 0 -36 20 -69 64 -14 18
-14 18 5 8 11 -5 33 -24 49 -41z m-1714 29 c0 -5 -7 -7 -15 -4 -8 4 -15 8 -15
10 0 2 7 4 15 4 8 0 15 -4 15 -10z m-239 -62 c22 -25 24 -38 6 -38 -19 0 -37
21 -37 42 0 24 9 23 31 -4z m2584 12 c3 -5 -1 -10 -9 -10 -9 0 -16 5 -16 10 0
6 4 10 9 10 6 0 13 -4 16 -10z m-2515 -20 c0 -5 -5 -10 -11 -10 -5 0 -7 5 -4
10 3 6 8 10 11 10 2 0 4 -4 4 -10z m1123 -12 c7 -24 -8 -48 -28 -48 -10 0 -11
8 -2 35 12 40 22 45 30 13z m1884 -4 c-3 -3 -12 -4 -19 -1 -8 3 -5 6 6 6 11 1
17 -2 13 -5z m-267 -28 c0 -3 -4 -8 -10 -11 -5 -3 -10 -1 -10 4 0 6 5 11 10
11 6 0 10 -2 10 -4z m-4342 -68 c8 -21 8 -29 -3 -38 -17 -14 -21 -5 -24 45 -2
42 7 40 27 -7z m2406 -54 c3 -9 6 -28 6 -42 l-1 -27 -14 25 c-16 28 -19 60 -6
60 5 0 12 -7 15 -16z m56 -30 c0 -19 -30 -77 -36 -71 -9 8 18 97 27 91 5 -3 9
-12 9 -20z m-1822 -7 c2 -11 -3 -17 -17 -17 -23 0 -35 15 -26 31 10 15 39 6
43 -14z m3215 -59 c13 -8 16 -61 4 -70 -6 -3 -11 -17 -12 -30 -2 -13 -8 -22
-16 -20 -8 1 -3 -7 11 -19 14 -11 19 -18 13 -14 -8 4 -13 0 -13 -10 0 -11 5
-15 14 -12 10 4 13 1 9 -9 -6 -16 -23 -19 -23 -4 0 6 -7 10 -15 10 -17 0 -18
-2 -9 -24 3 -9 13 -16 21 -16 13 0 13 -3 2 -16 -9 -12 -14 -13 -17 -4 -3 9 -6
9 -12 -1 -5 -8 -2 -17 7 -24 23 -17 1 -26 -28 -12 -20 11 -24 19 -23 55 1 23
4 45 7 48 3 3 1 19 -3 35 -7 22 -5 29 6 29 8 0 14 7 14 15 0 7 8 19 18 25 16
10 16 10 -2 8 -10 -2 -21 3 -24 11 -3 10 1 12 17 8 24 -6 27 3 9 22 -11 10
-10 14 5 22 9 6 18 18 18 27 1 13 2 12 6 -3 3 -11 10 -23 16 -27z m-3223 -8
c0 -11 -4 -20 -9 -20 -11 0 -22 26 -14 34 12 12 23 5 23 -14z m-750 -6 c0 -8
-4 -12 -10 -9 -5 3 -10 10 -10 16 0 5 5 9 10 9 6 0 10 -7 10 -16z m1922 -72
c-5 -1 -7 -13 -5 -26 5 -25 -1 -29 -104 -61 -40 -13 -56 -24 -72 -51 -12 -20
-18 -40 -15 -46 4 -6 -2 -8 -17 -3 -18 5 -20 4 -9 -4 8 -5 12 -12 10 -13 -48
-36 -77 -39 -74 -8 3 36 5 40 18 40 17 0 29 27 15 32 -22 7 4 34 59 63 59 31
183 121 192 139 3 6 6 -5 8 -24 2 -19 -1 -36 -6 -38z m2148 -2 c0 -5 -2 -10
-4 -10 -3 0 -8 5 -11 10 -3 6 -1 10 4 10 6 0 11 -4 11 -10z m-4070 -25 c0 -8
-2 -15 -4 -15 -2 0 -6 7 -10 15 -3 8 -1 15 4 15 6 0 10 -7 10 -15z m3910 -185
c0 -6 9 -6 26 0 37 14 49 13 34 -5 -7 -8 -9 -15 -6 -15 10 0 -15 -22 -42 -37
-28 -16 -27 -17 -29 6 -1 14 3 18 14 14 11 -4 14 -2 11 8 -3 8 -13 13 -22 13
-9 -1 -16 4 -16 12 0 8 7 14 15 14 8 0 15 -4 15 -10z m-1850 -25 c0 -5 -55
-35 -65 -35 -3 0 -5 4 -5 9 0 4 15 13 33 19 17 5 33 10 35 11 1 1 2 -1 2 -4z
m-470 -9 c0 -3 -4 -8 -10 -11 -5 -3 -10 -1 -10 4 0 6 5 11 10 11 6 0 10 -2 10
-4z m2295 -44 c16 -11 12 -37 -5 -35 -16 3 -40 -41 -43 -75 -1 -14 -6 -18 -21
-14 -16 4 -18 1 -14 -16 4 -12 2 -25 -3 -28 -5 -3 -9 2 -9 10 0 9 -4 16 -9 16
-5 0 -8 12 -7 27 4 32 41 77 57 68 6 -4 9 0 7 11 -2 11 2 18 9 17 7 -2 10 4 7
12 -6 16 13 20 31 7z m-845 -72 c0 -11 -7 -20 -15 -20 -18 0 -19 12 -3 28 16
16 18 15 18 -8z m1827 -6 c-3 -3 -12 -4 -19 -1 -8 3 -5 6 6 6 11 1 17 -2 13
-5z m8 -34 c3 -6 -1 -7 -9 -4 -18 7 -21 14 -7 14 6 0 13 -4 16 -10z m-985 -78
c0 -8 -5 -10 -12 -5 -7 4 -24 6 -37 4 -15 -2 -21 1 -17 8 4 6 16 11 26 11 14
0 18 5 14 18 -5 14 -3 14 10 -2 9 -11 16 -26 16 -34z m-4033 13 c0 -8 -4 -15
-9 -15 -10 0 -11 14 -1 23 9 10 10 9 10 -8z m3108 -13 c-3 -3 -11 0 -18 7 -9
10 -8 11 6 5 10 -3 15 -9 12 -12z m-59 -75 c-8 -20 -8 -30 0 -35 6 -4 11 -15
11 -25 0 -14 -6 -17 -29 -12 -21 5 -28 3 -28 -8 0 -10 8 -13 24 -10 17 4 27
-1 35 -15 12 -23 -5 -44 -18 -24 -4 7 -18 13 -31 15 -14 2 -25 9 -24 15 1 7 2
33 3 58 1 41 3 46 21 41 14 -3 20 0 22 11 0 10 2 22 3 27 2 6 4 15 5 20 1 6 5
1 9 -10 4 -10 3 -32 -3 -48z m1936 -52 c-2 -14 -6 -25 -8 -25 -2 0 -4 11 -4
25 0 14 4 25 9 25 4 0 6 -11 3 -25z m-1995 -107 c-3 -8 -6 -5 -6 6 -1 11 2 17
5 13 3 -3 4 -12 1 -19z m639 -82 c8 -8 11 -17 6 -20 -4 -2 -13 4 -20 15 -14
22 -7 25 14 5z m-836 -34 c0 -5 -7 -9 -15 -9 -8 0 -15 4 -15 9 0 4 7 8 15 8 8
0 15 -4 15 -8z m541 -26 c-8 -9 -8 -16 -2 -20 6 -4 8 -13 5 -21 -3 -7 -1 -22
4 -32 14 -25 -10 -57 -35 -49 -12 4 -28 -4 -48 -25 -24 -27 -27 -33 -14 -43 8
-7 13 -24 11 -43 -3 -30 -12 -38 -36 -34 -5 1 -13 -4 -17 -11 -5 -7 -13 -13
-19 -13 -12 0 -14 -9 -7 -36 4 -14 10 -18 19 -13 7 4 5 -1 -4 -12 -13 -15 -15
-23 -7 -31 8 -8 1 -15 -21 -27 -26 -12 -31 -13 -27 -1 3 7 1 16 -6 19 -8 3 -7
9 5 19 14 11 15 16 5 27 -9 9 -9 11 0 6 16 -9 29 14 13 24 -7 4 -9 16 -5 29 3
12 10 19 15 16 14 -9 22 13 24 68 2 29 10 68 18 87 9 19 18 42 20 50 5 15 58
23 58 8 0 -4 4 -8 8 -8 12 0 13 52 1 66 -9 11 -5 14 21 14 27 0 30 -2 21 -14z
m-697 -11 c-6 -16 -24 -21 -24 -7 0 11 11 22 21 22 5 0 6 -7 3 -15z m857 -8
c9 -7 14 -18 12 -24 -6 -18 -23 -16 -23 3 0 9 -6 14 -12 11 -7 -2 -12 -16 -11
-31 1 -19 -3 -26 -17 -26 -10 0 -20 -3 -23 -7 -2 -5 -3 -3 -1 3 1 6 -2 16 -8
22 -7 7 -4 14 11 21 12 7 21 18 21 26 0 18 29 19 51 2z m-866 -54 c-4 -50 -6
-53 -14 -23 -8 28 -3 60 10 60 4 0 6 -17 4 -37z m116 -26 c-13 -13 -15 1 -4
30 7 17 8 17 11 -1 2 -10 -1 -23 -7 -29z m-9 -39 c-2 -10 -13 -18 -24 -18 -18
0 -19 2 -7 17 8 9 13 26 11 37 -4 20 -3 21 11 2 8 -11 12 -28 9 -38z m-92 -8
c0 -5 -7 -10 -15 -10 -8 0 -15 5 -15 10 0 6 7 10 15 10 8 0 15 -4 15 -10z
m-95 -30 c3 -5 1 -10 -4 -10 -6 0 -11 5 -11 10 0 6 2 10 4 10 3 0 8 -4 11 -10z
m95 -7 c0 -10 -20 -40 -20 -31 0 3 -3 13 -6 22 -4 11 -1 16 10 16 9 0 16 -3
16 -7z m70 -8 c0 -8 -4 -15 -9 -15 -5 0 -18 -3 -28 -7 -17 -6 -17 -5 1 15 22
26 36 28 36 7z m-164 -41 c-9 -30 -53 -76 -61 -65 -3 6 -1 11 5 11 7 0 9 7 6
16 -3 8 -2 12 4 9 6 -3 10 1 10 10 0 9 5 26 11 37 13 25 34 9 25 -18z m497 12
c4 -10 1 -13 -8 -9 -8 3 -12 9 -9 14 7 12 11 11 17 -5z m92 -6 c3 -6 -1 -7 -9
-4 -18 7 -21 14 -7 14 6 0 13 -4 16 -10z m-500 -20 c3 -5 -1 -10 -10 -10 -9 0
-13 5 -10 10 3 6 8 10 10 10 2 0 7 -4 10 -10z m-1228 -6 c-3 -3 -12 -4 -19 -1
-8 3 -5 6 6 6 11 1 17 -2 13 -5z m1643 2 c0 -2 -7 -6 -15 -10 -8 -3 -15 -1
-15 4 0 6 7 10 15 10 8 0 15 -2 15 -4z m3 -42 c12 -4 12 -10 4 -28 -6 -13 -17
-21 -24 -19 -9 3 -13 -4 -13 -21 0 -31 -16 -35 -25 -6 -4 11 1 32 12 50 18 31
22 34 46 24z m-553 -33 c0 -6 -4 -13 -10 -16 -5 -3 -10 1 -10 9 0 9 5 16 10
16 6 0 10 -4 10 -9z m-40 -45 c0 -3 -4 -8 -10 -11 -5 -3 -10 -1 -10 4 0 6 5
11 10 11 6 0 10 -2 10 -4z m480 -36 c0 -5 -2 -10 -4 -10 -3 0 -8 5 -11 10 -3
6 -1 10 4 10 6 0 11 -4 11 -10z m-36 -37 c-5 -24 -11 -30 -30 -30 -13 0 -27 3
-30 8 -3 5 1 9 9 9 8 0 22 12 32 26 20 32 27 27 19 -13z m-444 3 c0 -3 -4 -8
-10 -11 -5 -3 -10 -1 -10 4 0 6 5 11 10 11 6 0 10 -2 10 -4z m428 -64 c2 -7
-3 -12 -12 -12 -9 0 -16 7 -16 16 0 17 22 14 28 -4z m-128 -57 c-10 -13 -9
-15 9 -15 11 0 21 -4 21 -10 0 -5 -11 -10 -25 -10 -18 0 -23 -4 -19 -15 4 -8
1 -15 -5 -15 -6 0 -11 7 -11 15 0 21 22 65 33 65 5 0 4 -7 -3 -15z m-365 -504
c-8 -17 -12 -31 -8 -31 4 0 -2 -7 -13 -16 -10 -8 -13 -13 -6 -9 14 7 17 -11 2
-20 -6 -3 -7 -17 -4 -31 8 -33 -11 -31 -47 5 -50 50 -36 88 49 136 43 24 52
13 27 -34z m-2077 -21 c17 -11 32 -26 32 -35 0 -12 -7 -11 -39 6 -39 20 -61
49 -38 49 7 0 27 -9 45 -20z m85 -52 c18 -12 46 -34 64 -49 17 -15 37 -29 44
-31 8 -3 10 -11 6 -22 -7 -18 -8 -18 -29 0 -11 11 -30 33 -40 49 l-20 30 5
-35 c4 -29 2 -32 -7 -16 -6 11 -23 34 -38 51 -43 50 -37 59 15 23z m1837 -34
c0 -2 -7 -4 -15 -4 -8 0 -15 4 -15 10 0 5 7 7 15 4 8 -4 15 -8 15 -10z m-1073
-26 c-3 -8 -6 -5 -6 6 -1 11 2 17 5 13 3 -3 4 -12 1 -19z m-599 -71 c21 -22
21 -23 2 -24 -11 -1 -20 2 -20 7 0 5 -3 15 -6 24 -8 22 -1 20 24 -7z m92 -106
c0 -21 -16 -2 -25 29 -7 24 -7 24 9 5 8 -11 16 -27 16 -34z m1007 -323 c-3 -7
-5 -2 -5 12 0 14 2 19 5 13 2 -7 2 -19 0 -25z m-737 -224 c-61 -35 -161 -84
-173 -84 -25 0 26 37 98 71 93 44 144 53 75 13z m655 -325 c3 -10 8 -28 11
-39 7 -25 -14 -27 -32 -2 -19 24 -18 73 1 66 8 -3 17 -14 20 -25z m90 -23 c27
-12 35 -21 35 -40 0 -31 -14 -40 -39 -27 -31 17 -51 41 -51 62 0 23 10 24 55
5z m105 -50 c0 -8 -4 -18 -10 -21 -5 -3 -10 3 -10 14 0 12 5 21 10 21 6 0 10
-6 10 -14z m-134 -53 c-7 -7 -26 7 -26 19 0 6 6 6 15 -2 9 -7 13 -15 11 -17z"/>
<path d="M9075 7530 c3 -5 10 -10 16 -10 5 0 9 5 9 10 0 6 -7 10 -16 10 -8 0
-12 -4 -9 -10z"/>
<path d="M7384 6044 c-18 -14 -18 -15 4 -4 12 6 22 13 22 15 0 8 -5 6 -26 -11z"/>
<path d="M8740 5155 c0 -9 6 -12 15 -9 8 4 15 10 15 15 0 5 -7 9 -15 9 -8 0
-15 -7 -15 -15z"/>
<path d="M8346 8872 c-3 -5 6 -15 19 -22 14 -7 25 -19 25 -27 0 -7 5 -13 10
-13 15 0 12 22 -6 48 -15 22 -39 29 -48 14z"/>
<path d="M7723 8263 c-7 -2 -13 -10 -13 -17 0 -7 -21 -20 -47 -28 -41 -14 -44
-16 -19 -17 21 -1 27 -5 22 -16 -3 -10 1 -15 14 -15 10 0 25 -6 32 -13 33 -31
64 -36 115 -18 43 15 48 20 49 48 1 27 -3 32 -27 37 -17 3 -29 12 -29 21 0 10
-10 15 -29 15 -16 0 -35 2 -43 4 -7 3 -19 2 -25 -1z"/>
<path d="M10255 7970 c4 -6 15 -43 26 -83 11 -39 31 -91 45 -114 l25 -43 -24
0 c-13 0 -27 -3 -31 -7 -7 -7 76 -63 94 -63 21 0 9 -16 -20 -27 -39 -15 -38
-28 3 -49 17 -9 47 -28 66 -42 25 -19 33 -21 28 -9 -4 9 -10 24 -13 32 -4 10
3 16 23 21 15 4 37 13 48 20 11 8 36 14 55 14 67 0 154 20 245 57 50 20 94 39
98 43 4 4 -32 1 -80 -6 -48 -8 -133 -18 -188 -24 -55 -6 -116 -13 -135 -16
l-35 -5 50 45 c28 25 45 45 38 46 -6 0 -15 -5 -18 -10 -8 -13 -86 -63 -90 -58
-1 2 -19 37 -40 78 -53 107 -132 210 -163 210 -7 0 -10 -5 -7 -10z"/>
<path d="M7330 7645 c-7 -8 -18 -14 -24 -14 -6 1 -24 -1 -39 -6 l-28 -8 40
-38 c39 -38 63 -46 127 -40 13 1 25 -7 32 -21 11 -23 11 -23 11 -2 1 12 8 25
17 28 10 4 14 16 12 38 -2 18 -7 31 -12 30 -5 -2 -12 0 -15 5 -3 5 -24 15 -46
22 -22 7 -45 14 -51 17 -6 3 -17 -2 -24 -11z"/>
<path d="M8228 7612 c-35 -21 -38 -46 -5 -37 12 4 26 11 32 16 5 5 18 9 28 9
17 0 18 -2 6 -16 -12 -15 -11 -16 11 -8 14 5 40 8 58 8 40 -1 41 7 3 29 -37
22 -98 21 -133 -1z"/>
<path d="M7689 7508 c-8 -27 -3 -41 17 -54 13 -9 24 -24 24 -34 0 -20 -26 -34
-35 -20 -4 6 -13 10 -21 10 -10 0 -4 -10 15 -26 17 -14 29 -30 25 -35 -3 -5
-1 -9 4 -9 5 0 12 -9 15 -19 4 -16 12 -19 43 -16 22 2 60 5 86 6 31 2 45 6 41
14 -2 7 3 15 11 18 22 9 20 27 -3 27 -37 0 -29 16 14 29 50 15 64 36 32 46
-16 4 -18 8 -8 12 9 4 2 10 -19 19 -29 13 -35 12 -52 -3 -16 -14 -22 -15 -36
-5 -9 7 -24 15 -32 18 -8 3 -23 10 -32 15 -16 8 -87 13 -89 7z m156 -68 c4 -6
-9 -10 -32 -10 -28 0 -34 3 -23 10 20 13 47 13 55 0z"/>
<path d="M7462 7465 c6 -14 18 -25 26 -25 12 0 10 6 -8 25 -13 14 -25 25 -27
25 -1 0 3 -11 9 -25z"/>
<path d="M7620 7400 c0 -5 5 -10 10 -10 6 0 10 5 10 10 0 6 -4 10 -10 10 -5 0
-10 -4 -10 -10z"/>
<path d="M7570 7359 c0 -5 5 -7 10 -4 6 3 10 8 10 11 0 2 -4 4 -10 4 -5 0 -10
-5 -10 -11z"/>
<path d="M7657 7349 c7 -7 15 -10 18 -7 3 3 -2 9 -12 12 -14 6 -15 5 -6 -5z"/>
<path d="M9610 7290 c0 -6 7 -10 15 -10 8 0 15 2 15 4 0 2 -7 6 -15 10 -8 3
-15 1 -15 -4z"/>
<path d="M10680 7182 c0 -5 11 -14 24 -20 14 -6 33 -23 42 -37 10 -15 28 -31
41 -36 16 -6 21 -13 16 -26 -4 -14 -3 -15 6 -7 18 17 9 67 -14 79 -11 5 -35
20 -52 33 -31 22 -63 29 -63 14z"/>
<path d="M10603 6890 c-18 -11 -33 -24 -33 -30 0 -13 -1 -13 45 10 22 11 46
20 55 20 13 0 13 1 0 10 -21 14 -31 12 -67 -10z"/>
<path d="M7880 6765 c-23 -49 -53 -126 -66 -170 -14 -44 -32 -97 -40 -118
l-14 -37 28 6 c15 4 50 23 77 44 28 20 67 45 88 55 20 9 68 46 105 81 55 52
63 63 45 64 -12 0 -25 5 -29 11 -5 9 4 10 32 5 l39 -6 -39 32 c-22 18 -57 51
-78 72 -21 22 -38 35 -38 30 0 -5 -4 -15 -9 -23 -7 -11 -14 -8 -34 15 l-25 29
-42 -90z m30 -100 c0 -17 -2 -18 -24 -9 -23 9 -20 24 4 24 11 0 20 -7 20 -15z"/>
<path d="M8200 6628 l-23 -33 28 27 c16 15 26 30 23 33 -3 4 -16 -9 -28 -27z"/>
<path d="M6821 6464 c-12 -14 -20 -28 -18 -31 7 -6 57 27 57 38 0 20 -19 16
-39 -7z"/>
<path d="M7352 6240 c-18 -30 -5 -43 24 -24 22 15 36 43 14 29 -5 -3 -10 -1
-10 4 0 18 -14 13 -28 -9z"/>
<path d="M7801 6217 l-25 -32 32 29 c33 31 37 36 25 35 -5 0 -19 -14 -32 -32z"/>
<path d="M5278 5193 c7 -3 16 -2 19 1 4 3 -2 6 -13 5 -11 0 -14 -3 -6 -6z"/>
<path d="M5177 4784 c-10 -10 -9 -44 2 -44 13 0 23 32 13 42 -5 5 -11 5 -15 2z"/>
<path d="M8430 3980 c0 -11 7 -20 15 -20 8 0 15 9 15 20 0 11 -7 20 -15 20 -8
0 -15 -9 -15 -20z"/>
<path d="M8465 3800 c3 -5 10 -10 16 -10 5 0 9 5 9 10 0 6 -7 10 -16 10 -8 0
-12 -4 -9 -10z"/>
<path d="M9365 3720 c3 -5 8 -10 11 -10 2 0 4 5 4 10 0 6 -5 10 -11 10 -5 0
-7 -4 -4 -10z"/>
<path d="M10242 3453 c-7 -43 -12 -90 -12 -104 0 -14 -6 -34 -14 -44 -13 -18
-14 -18 -45 4 -17 12 -31 18 -31 13 0 -6 8 -13 17 -16 14 -6 15 -9 4 -15 -15
-10 -49 -3 -70 13 -12 9 -13 8 -9 -5 5 -14 -13 -18 -145 -29 -89 -7 -144 -16
-132 -20 37 -13 243 -31 285 -24 37 6 41 5 38 -12 -2 -15 2 -18 22 -16 14 2
37 12 52 23 17 12 44 19 72 19 62 0 72 22 21 44 -5 3 1 14 15 25 14 11 20 21
14 21 -7 0 -15 26 -19 58 -6 50 -37 142 -48 142 -2 0 -9 -35 -15 -77z"/>
<path d="M9482 3351 c-6 -17 -18 -31 -27 -31 -8 0 -20 -11 -25 -24 -5 -13 -18
-27 -29 -31 -26 -8 -28 -25 -3 -25 14 0 14 -3 -5 -18 l-22 -17 24 -22 c16 -14
27 -18 31 -11 5 7 12 5 20 -6 11 -16 13 -16 19 4 5 17 10 19 21 9 11 -9 14 -8
14 5 0 9 5 16 10 16 6 0 10 9 10 20 0 13 7 20 19 20 10 0 25 8 32 17 12 14 12
16 -2 11 -16 -6 -38 19 -44 53 -2 10 -10 28 -18 40 -14 20 -15 19 -25 -10z"/>
<path d="M6890 3056 c0 -2 7 -6 15 -10 8 -3 15 -1 15 4 0 6 -7 10 -15 10 -8 0
-15 -2 -15 -4z"/>
</g>
</svg>
